<svg xmlns="http://www.w3.org/2000/svg" width="25.555" height="22.392" viewBox="0 0 25.555 22.392">
  <defs>
    <style>
      .cls-1 {
        fill: #fff;
        fill-rule: evenodd;
      }
    </style>
  </defs>
  <g id="Group-3" transform="translate(0 0)">
    <path id="Fill-1" class="cls-1" d="M23.338,4.154c0,4.537-4.939,13.271-7.58,16.672-1.091-1.8-3.236-3.6-5.5-5.494C6.63,12.3,2.882,9.159,2.616,5.474a3.912,3.912,0,0,1,.866-3.065,2.919,2.919,0,0,1,2.061-.928c1.816,0,3.766,3.573,5.333,6.444,1.314,2.408,2.154,3.884,2.846,3.884a.754.754,0,0,0,.675-.734c0-1.014,3.814-9.129,7.5-9.129.147,0,1.438.062,1.438,2.207M21.2.475c-2.549,0-5.7,2.484-7.562,5.938C11.954,2.8,8.482,0,5.642,0A5.516,5.516,0,0,0,0,5.623C0,12.4,8.822,17.906,13.561,20.862c.993.62,1.777,1.109,2.272,1.479l.068.051.072-.045c6.17-3.832,9.582-12.638,9.582-17.259C25.555,2.2,23.928.475,21.2.475" transform="translate(0 0)"/>
  </g>
</svg>
