<svg xmlns="http://www.w3.org/2000/svg" width="24.979" height="24.977" viewBox="0 0 24.979 24.977">
  <defs>
    <style>
      .cls-1 {
        fill: #fff;
      }
    </style>
  </defs>
  <path id="whatsapp-brands" class="cls-1" d="M21.238,35.63A12.382,12.382,0,0,0,1.756,50.566L0,56.977l6.563-1.723a12.341,12.341,0,0,0,5.916,1.505h.006a12.6,12.6,0,0,0,11.94-8.745,11.936,11.936,0,0,0,.555-3.632A12.426,12.426,0,0,0,21.238,35.63ZM12.484,54.675a10.271,10.271,0,0,1-5.241-1.433l-.374-.223-3.892,1.02,1.037-3.8-.245-.39a10.308,10.308,0,1,1,19.119-5.469,10.409,10.409,0,0,1-10.4,10.292Zm5.643-7.705c-.307-.156-1.829-.9-2.113-1s-.491-.156-.7.156-.8,1-.981,1.215-.362.234-.669.078a8.419,8.419,0,0,1-4.21-3.68c-.318-.546.318-.507.909-1.689a.573.573,0,0,0-.028-.541c-.078-.156-.7-1.678-.953-2.3-.251-.6-.507-.519-.7-.53s-.385-.011-.591-.011a1.146,1.146,0,0,0-.825.385,3.475,3.475,0,0,0-1.082,2.581,6.059,6.059,0,0,0,1.26,3.2,13.821,13.821,0,0,0,5.286,4.672c1.963.847,2.732.92,3.713.775a3.168,3.168,0,0,0,2.085-1.472,2.586,2.586,0,0,0,.178-1.472C18.64,47.2,18.433,47.12,18.127,46.97Z" transform="translate(0 -32)"/>
</svg>
