<svg xmlns="http://www.w3.org/2000/svg" width="32.003" height="33.895" viewBox="0 0 32.003 33.895">
  <g id="Grupo_112" data-name="Grupo 112" transform="translate(-276.498 -21.604)">
    <path id="Uni贸n_18" data-name="Uni贸n 18" d="M-7117-41l-10,9S-7117.365-41.268-7117-41Zm-10-21v0Zm30,21v.068Zm0-10.009v0ZM-7097-41Zm-20,0h0ZM-7097-41Zm-30-21h0Z" transform="translate(7404.499 86.5)" fill="rgba(0,0,0,0)" stroke="#fff" stroke-linecap="round" stroke-linejoin="round" stroke-width="2"/>
    <path id="Uni贸n_17" data-name="Uni贸n 17" d="M-7066.271,5.109-7079.14,16.9ZM-7083,16.9h0V12.969h0l12.867-11.789L-7083,12.969V16.9h0Zm14.873-13.384a5.967,5.967,0,0,1-1.538-2.739,2.767,2.767,0,0,1,3.85,0,2.9,2.9,0,0,1-.067,4l-.261.142-.081.042-.035.033C-7066.47,4.988-7067.173,4.632-7068.126,3.516Z" transform="translate(7370.393 22.279)" fill="rgba(0,0,0,0)" stroke="#fff" stroke-linecap="square" stroke-linejoin="round" stroke-width="1"/>
  </g>
</svg>
