<svg xmlns="http://www.w3.org/2000/svg" width="449" height="232" viewBox="0 0 449 232">
  <defs>
    <style>
      .cls-1 {
        fill: #ebebeb;
        stroke-dasharray: 20 20;
      }

      .cls-2, .cls-3 {
        stroke: none;
      }

      .cls-3 {
        fill: #919191;
      }
    </style>
  </defs>
  <g id="Trazado_90" data-name="Trazado 90" class="cls-1">
    <path class="cls-2" d="M0,0H449V232H0Z"/>
    <path class="cls-3" d="M 40 0 L 60 0 L 60 3 L 40 3 L 40 0 Z M 80 0 L 100 0 L 100 3 L 80 3 L 80 0 Z M 120 0 L 140 0 L 140 3 L 120 3 L 120 0 Z M 160 0 L 180 0 L 180 3 L 160 3 L 160 0 Z M 200 0 L 220 0 L 220 3 L 200 3 L 200 0 Z M 240 0 L 260 0 L 260 3 L 240 3 L 240 0 Z M 280 0 L 300 0 L 300 3 L 280 3 L 280 0 Z M 320 0 L 340 0 L 340 3 L 320 3 L 320 0 Z M 360 0 L 380 0 L 380 3 L 360 3 L 360 0 Z M 400 0 L 420 0 L 420 3 L 400 3 L 400 0 Z M 440 0 L 449 0 L 449 3 L 449 3 C 449 6.257064819335938 449 11 449 11 L 446 11 L 446 3 L 440 3 L 440 0 Z M 446 31 L 449 31 C 449 31 449 51 449 51 L 446 51 L 446 31 Z M 446 71 L 449 71 C 449 71 449 91 449 91 L 446 91 L 446 71 Z M 446 111 L 449 111 C 449 111 449 131 449 131 L 446 131 L 446 111 Z M 446 151 L 449 151 C 449 151 449 171 449 171 L 446 171 L 446 151 Z M 446 191 L 449 191 C 449 191 449 211 449 211 L 446 211 L 446 191 Z M 430 229 L 449 229 L 449 231 L 449 231 L 449 229 L 449 231 L 449 231 C 449 231 449 232 449 232 L 446 232 L 446 232 L 446 232 L 446 232 L 446 232 C 440.6459045410156 232 430 232 430 232 L 430 229 Z M 390 229 L 410 229 L 410 232 C 410 232 390 232 390 232 L 390 229 Z M 350 229 L 370 229 L 370 232 C 370 232 350 232 350 232 L 350 229 Z M 310 229 L 330 229 L 330 232 C 330 232 310 232 310 232 L 310 229 Z M 270 229 L 290 229 L 290 232 C 290 232 270 232 270 232 L 270 229 Z M 230 229 L 250 229 L 250 232 C 250 232 230 232 230 232 L 230 229 Z M 190 229 L 210 229 L 210 232 C 210 232 190 232 190 232 L 190 229 Z M 150 229 L 170 229 L 170 232 C 170 232 150 232 150 232 L 150 229 Z M 110 229 L 130 229 L 130 232 C 130 232 110 232 110 232 L 110 229 Z M 70 229 L 90 229 L 90 232 C 90 232 70 232 70 232 L 70 229 Z M 30 229 L 50 229 L 50 232 C 50 232 30 232 30 232 L 30 229 Z M 0 222 L 3 222 L 3 229 L 10 229 L 10 232 C 10 232 0 232 0 232 L 0 222 Z M 0 182 L 3 182 L 3 202 L 0 202 L 0 182 Z M 0 142 L 3 142 L 3 162 L 0 162 L 0 142 Z M 0 102 L 3 102 L 3 122 L 0 122 L 0 102 Z M 0 62 L 3 62 L 3 82 L 0 82 L 0 62 Z M 0 22 L 3 22 L 3 42 L 0 42 L 0 22 Z M 0 0 L 20 0 L 20 3 L 0 3 L 0 0 Z"/>
  </g>
</svg>
