<svg id="Grupo_30" data-name="Grupo 30" xmlns="http://www.w3.org/2000/svg" width="139.134" height="122" viewBox="0 0 139.134 122">
  <defs>
    <style>
      .cls-1 {
        fill: none;
      }

      .cls-2 {
        fill: #ee3e54;
      }

      .cls-3 {
        fill: #f1cf0f;
      }

      .cls-4, .cls-7 {
        fill: #fff;
      }

      .cls-5, .cls-8 {
        fill: #2c2c2c;
      }

      .cls-6, .cls-7, .cls-8 {
        stroke: none;
      }
    </style>
  </defs>
  <g id="Grupo_29" data-name="Grupo 29" transform="translate(0 0)">
    <g id="Trazado_20" data-name="Trazado 20" class="cls-1" transform="translate(9.54 8.09)">
      <path class="cls-6" d="M56.819,0A56.819,56.819,0,1,1,0,56.819,56.819,56.819,0,0,1,56.819,0Z"/>
      <path class="cls-7" d="M 56.81945037841797 2 C 49.41798400878906 2 42.23898315429688 3.449134826660156 35.48186492919922 6.307167053222656 C 32.23401641845703 7.680885314941406 29.101318359375 9.38128662109375 26.17076873779297 11.36111450195313 C 23.26754760742188 13.32248687744141 20.53743743896484 15.57505035400391 18.05625152587891 18.05625152587891 C 15.57505035400391 20.53743743896484 13.32248687744141 23.26754760742188 11.36111450195313 26.17076873779297 C 9.38128662109375 29.101318359375 7.680885314941406 32.23401641845703 6.307167053222656 35.48186492919922 C 3.449134826660156 42.23898315429688 2 49.41798400878906 2 56.81945037841797 C 2 64.22091674804688 3.449134826660156 71.39991760253906 6.307167053222656 78.15702819824219 C 7.680885314941406 81.40488433837891 9.38128662109375 84.53758239746094 11.36111450195313 87.46813201904297 C 13.32248687744141 90.37135314941406 15.57505035400391 93.10147094726563 18.05625152587891 95.58264923095703 C 20.53743743896484 98.06385040283203 23.26754760742188 100.3164138793945 26.17076873779297 102.2777862548828 C 29.101318359375 104.2576141357422 32.23401641845703 105.9580154418945 35.48186492919922 107.3317337036133 C 42.23898315429688 110.1897659301758 49.41798400878906 111.6389007568359 56.81945037841797 111.6389007568359 C 64.22091674804688 111.6389007568359 71.39991760253906 110.1897659301758 78.15702819824219 107.3317337036133 C 81.40488433837891 105.9580154418945 84.53758239746094 104.2576141357422 87.46813201904297 102.2777862548828 C 90.37135314941406 100.3164138793945 93.10147094726563 98.06385040283203 95.58264923095703 95.58264923095703 C 98.06385040283203 93.10147094726563 100.3164138793945 90.37135314941406 102.2777862548828 87.46813201904297 C 104.2576141357422 84.53758239746094 105.9580154418945 81.40488433837891 107.3317337036133 78.15702819824219 C 110.1897659301758 71.39991760253906 111.6389007568359 64.22091674804688 111.6389007568359 56.81945037841797 C 111.6389007568359 49.41798400878906 110.1897659301758 42.23898315429688 107.3317337036133 35.48186492919922 C 105.9580154418945 32.23401641845703 104.2576141357422 29.101318359375 102.2777862548828 26.17076873779297 C 100.3164138793945 23.26754760742188 98.06385040283203 20.53743743896484 95.58264923095703 18.05625152587891 C 93.10147094726563 15.57505035400391 90.37135314941406 13.32248687744141 87.46813201904297 11.36111450195313 C 84.53758239746094 9.38128662109375 81.40488433837891 7.680885314941406 78.15702819824219 6.307167053222656 C 71.39991760253906 3.449134826660156 64.22091674804688 2 56.81945037841797 2 M 56.81945037841797 0 C 88.19996643066406 0 113.6389007568359 25.43893432617188 113.6389007568359 56.81945037841797 C 113.6389007568359 88.19996643066406 88.19996643066406 113.6389007568359 56.81945037841797 113.6389007568359 C 25.43893432617188 113.6389007568359 0 88.19996643066406 0 56.81945037841797 C 0 25.43893432617188 25.43893432617188 0 56.81945037841797 0 Z"/>
    </g>
    <circle id="Elipse_3" data-name="Elipse 3" class="cls-2" cx="3.444" cy="3.444" r="3.444" transform="translate(3.444 39.706) rotate(30)"/>
    <ellipse id="Elipse_4" data-name="Elipse 4" class="cls-2" cx="2.5" cy="3.5" rx="2.5" ry="3.5" transform="translate(118.134 97)"/>
    <circle id="Elipse_5" data-name="Elipse 5" class="cls-3" cx="6" cy="6" r="6" transform="translate(78.134 6)"/>
    <circle id="Elipse_6" data-name="Elipse 6" class="cls-3" cx="3" cy="3" r="3" transform="translate(72.134)"/>
    <ellipse id="Elipse_7" data-name="Elipse 7" class="cls-3" cx="2.5" cy="3" rx="2.5" ry="3" transform="translate(29.134 116)"/>
    <ellipse id="Elipse_8" data-name="Elipse 8" class="cls-3" cx="6.5" cy="6" rx="6.5" ry="6" transform="translate(9.134 85)"/>
    <ellipse id="Elipse_9" data-name="Elipse 9" class="cls-3" cx="3" cy="3.5" rx="3" ry="3.5" transform="translate(22.134 97)"/>
    <ellipse id="Elipse_10" data-name="Elipse 10" class="cls-4" cx="4.5" cy="5" rx="4.5" ry="5" transform="translate(102.134 24)"/>
    <ellipse id="Elipse_11" data-name="Elipse 11" class="cls-4" cx="3" cy="2" rx="3" ry="2" transform="translate(16.134 74)"/>
    <circle id="Elipse_12" data-name="Elipse 12" class="cls-3" cx="3.5" cy="3.5" r="3.5" transform="translate(132.134 52)"/>
    <circle id="Elipse_13" data-name="Elipse 13" class="cls-4" cx="5" cy="5" r="5" transform="translate(52.134 100)"/>
  </g>
  <g id="Trazado_68" data-name="Trazado 68" class="cls-1" transform="translate(33.243 42.256)">
    <path class="cls-6" d="M0,0H67.66V45.429H0Z"/>
    <path class="cls-8" d="M 3.999996185302734 3.999996185302734 L 3.999996185302734 41.42903137207031 L 63.66027450561523 41.42903137207031 L 63.66027450561523 3.999996185302734 L 3.999996185302734 3.999996185302734 M 0 -3.814697265625e-06 L 67.66027069091797 -3.814697265625e-06 L 67.66027069091797 45.42903137207031 L 0 45.42903137207031 L 0 -3.814697265625e-06 Z"/>
  </g>
  <g id="Polígono_3" data-name="Polígono 3" class="cls-5" transform="translate(45.134 60)">
    <path class="cls-6" d="M 21.13277816772461 18.5 L 0.8672215938568115 18.5 L 11 0.9979282021522522 L 21.13277816772461 18.5 Z"/>
    <path class="cls-8" d="M 11 1.995874404907227 L 1.734453201293945 18 L 20.26554679870605 18 L 11 1.995874404907227 M 11 0 L 22 19 L 0 19 L 11 0 Z"/>
  </g>
  <g id="Polígono_4" data-name="Polígono 4" class="cls-5" transform="translate(60.134 52)">
    <path class="cls-6" d="M 29.15024375915527 26.5 L 0.8497587442398071 26.5 L 15.00000095367432 1.029564023017883 L 29.15024375915527 26.5 Z"/>
    <path class="cls-8" d="M 15.00000095367432 2.059127807617188 L 1.699516296386719 26 L 28.30048561096191 26 L 15.00000095367432 2.059127807617188 M 15.00000095367432 0 L 30 27 L 1.9073486328125e-06 27 L 15.00000095367432 0 Z"/>
  </g>
</svg>
