<svg xmlns="http://www.w3.org/2000/svg" viewBox="0 0 24.98 24.97"><defs><style>.cls-1{fill:#fff;}</style></defs><title>whatsapp-icon</title><g id="Capa_2" data-name="Capa 2"><g id="Capa_1-2" data-name="Capa 1"><path id="whatsapp-brands-2" class="cls-1" d="M21.24,3.62A12.38,12.38,0,0,0,1.76,18.56L0,25l6.56-1.73a12.38,12.38,0,0,0,5.92,1.51h0A12.57,12.57,0,0,0,24.42,16,11.76,11.76,0,0,0,25,12.37,12.44,12.44,0,0,0,21.24,3.62ZM12.48,22.67a10.3,10.3,0,0,1-5.24-1.44L6.87,21,3,22l1-3.8-.24-.39a10.31,10.31,0,1,1,19.12-5.47,10.41,10.41,0,0,1-10.4,10.29ZM18.13,15c-.31-.16-1.83-.9-2.12-1s-.49-.16-.7.16-.8,1-1,1.21-.36.24-.67.08a8.45,8.45,0,0,1-4.21-3.68c-.31-.55.32-.51.91-1.69a.6.6,0,0,0,0-.54c-.08-.16-.7-1.68-1-2.3s-.5-.52-.7-.53H8.09A1.15,1.15,0,0,0,7.27,7,3.5,3.5,0,0,0,6.18,9.62a6.1,6.1,0,0,0,1.26,3.2,13.88,13.88,0,0,0,5.29,4.68c2,.84,2.73.92,3.71.77a3.16,3.16,0,0,0,2.09-1.47,2.64,2.64,0,0,0,.18-1.47C18.64,15.19,18.43,15.11,18.13,15Z"/></g></g></svg>